<?xml version="1.0" encoding="utf-8" ?>
<svg xmlns="http://www.w3.org/2000/svg" xmlns:xlink="http://www.w3.org/1999/xlink" width="30" height="30">
	<path fill="#FEFADC" transform="scale(0.0585938 0.0585938)" d="M0 0L0 512L512 512L512 0L0 0Z"/>
	<path fill="#F3B391" transform="scale(0.0585938 0.0585938)" d="M228.912 297.863C224.403 296.559 219.878 295.203 215.506 293.489C177.231 278.487 150.331 240.654 148.325 199.629C145.381 139.378 192.996 89.7488 252.01 86.9395C257.264 86.4426 263.184 87.12 268.437 87.4469C268.73 90.7674 268.571 94.1909 268.571 97.5266L268.5 173.761C269.952 172.993 271.248 171.942 272.6 171.013C280.008 165.919 287.604 161.093 295.021 156.001C297.857 154.053 300.923 152.23 303.535 149.99C304.385 151.343 305.43 152.587 306.388 153.868C310.879 159.871 314.683 166.065 318.976 171.974C313.808 175.68 308.457 179.166 303.172 182.704L286.619 193.646C284.091 195.338 281.659 197.185 279.225 199.009C282.185 201.41 285.824 203.399 289.005 205.554L307.179 217.77C310.745 220.143 314.354 222.437 317.87 224.885C313.263 231.835 306.497 239.064 301.338 245.892C298.862 243.869 296.186 242.125 293.526 240.359L275.725 228.413C273.445 226.875 271.169 225.282 268.692 224.073C268.32 229.272 268.566 235.299 268.566 240.573L268.544 273.803C280.669 271.995 289.455 269.101 299.894 262.464C331.525 242.357 346.081 201.747 332.541 166.542C324.723 146.214 309.713 129.543 289.45 120.958C286.83 119.848 283.996 118.687 281.213 118.075C281.397 115.654 281.338 113.214 281.338 110.788L281.334 99.3597C281.333 96.3409 281.287 93.3373 281.516 90.3245C299.347 93.8704 317.777 104.848 330.761 117.361C373.901 158.936 374.63 226.199 332.789 269.416C314.683 288.117 287.335 300.628 261.084 301.073C255.006 301.285 248.955 300.867 242.885 300.657C243.38 297.63 243.138 294.382 243.136 291.314L243.133 242.707C243.133 236.454 243.191 230.197 243.098 223.946C239.913 226.177 236.586 228.252 233.354 230.423L210.421 245.916C204.856 240.224 199.429 231.295 193.737 224.869C206.662 217.639 220.307 207.136 232.794 198.868C229.903 197.244 227.168 195.132 224.421 193.264L207.241 181.63C202.396 178.294 197.619 174.669 192.373 171.982C194.442 169.754 196.236 166.62 197.982 164.085C201.281 159.296 204.665 154.445 208.316 149.92C211.325 152.53 215.539 155.062 218.877 157.326C226.823 162.716 235.402 168.234 243.133 173.804C243.293 169.005 243.133 164.14 243.132 159.335L243.13 130.078C243.13 125.058 242.952 119.963 243.218 114.952C213.817 118.827 188.782 139.992 178.941 167.842C164.046 209.997 187.157 255.719 228.956 270.454C229.067 278.835 229.507 289.595 228.912 297.863Z"/>
	<path fill="#F6D4BA" transform="scale(0.0585938 0.0585938)" d="M176.448 456L176.448 331L193.886 331L193.886 389.951L222.59 331L238.793 331L214.102 386.093L242.806 456L225.83 456L201.91 397.358L193.886 411.864L193.886 456L176.448 456ZM252.528 456L254.843 331L271.972 331L294.04 432.389L316.262 331L333.238 331L335.552 456L321.509 456L320.12 365.259L298.978 456L289.102 456L268.114 365.259L266.725 456L252.528 456Z"/>
</svg>
